# xmcd
#
# Track frame offsets:
#	150
#	14808
#	31022
#	46369
#	66365
#	78761
#	92562
#	105299
#	119540
#	144293
#	157987
#
# Disc length: 2345 seconds
#
# Revision: 1
# Processed by: cddbd v1.5.2PL0 Copyright (c) Steve Scherf et al.
# Submitted via: audiograbber 1.83.01
#
DISCID=8009270b
DTITLE=Butchers Blind - Destination Blues
DYEAR=2013
DGENRE=Country
TTITLE0=Nobody Hears What I Say Anymore
TTITLE1=Tear It Down
TTITLE2=OPP
TTITLE3=Destination Blues
TTITLE4=Honestly
TTITLE5=College Town
TTITLE6=Drowned
TTITLE7=Young Again
TTITLE8=Selfish Silent Films
TTITLE9=Enough Already Anyway
TTITLE10=Burn Up Bright (Lower East Side)
EXTD=
EXTT0=
EXTT1=
EXTT2=
EXTT3=
EXTT4=
EXTT5=
EXTT6=
EXTT7=
EXTT8=
EXTT9=
EXTT10=
PLAYORDER=
